<svg xmlns="http://www.w3.org/2000/svg" version="1.1" xmlns:xlink="http://www.w3.org/1999/xlink" xmlns:svgjs="http://svgjs.dev/svgjs" width="2000" height="1075" viewBox="0 0 2000 1075"><g transform="matrix(1,0,0,1,-1.2121212121212466,0.22475395455501257)"><svg viewBox="0 0 396 213" data-background-color="#97978d" preserveAspectRatio="xMidYMid meet" height="1075" width="2000" xmlns="http://www.w3.org/2000/svg" xmlns:xlink="http://www.w3.org/1999/xlink"><g id="tight-bounds" transform="matrix(1,0,0,1,0.2400000000000091,-0.044523380539899904)"><svg viewBox="0 0 395.52 213.0890560245587" height="213.0890560245587" width="395.52"><g><svg viewBox="0 0 395.52 213.0890560245587" height="213.0890560245587" width="395.52"><g><svg viewBox="0 0 395.52 213.0890560245587" height="213.0890560245587" width="395.52"><g id="textblocktransform"><svg viewBox="0 0 395.52 213.0890560245587" height="213.0890560245587" width="395.52" id="textblock"><g><svg viewBox="0 0 395.52 213.0890560245587" height="213.0890560245587" width="395.52"><g transform="matrix(1,0,0,1,0,0)"><svg width="395.52" viewBox="3.0999999046325684 -35.099998474121094 65.1500015258789 35.099998474121094" height="213.0890560245587" data-palette-color="#ffffff"><path d="M34.5-35.1L34.5 0 25.95 0 11.65-21.65 11.65 0 3.1 0 3.1-35.1 11.65-35.1 25.95-13.35 25.95-35.1 34.5-35.1ZM68.25 0L58.6 0 51.3-13.25 49.25-13.25 49.25 0 40.7 0 40.7-35.1 55.05-35.1Q59.2-35.1 62.12-33.65 65.05-32.2 66.5-29.68 67.95-27.15 67.95-24.05L67.95-24.05Q67.95-20.55 65.97-17.8 64-15.05 60.15-13.9L60.15-13.9 68.25 0ZM49.25-28L49.25-19.3 54.55-19.3Q56.9-19.3 58.07-20.45 59.25-21.6 59.25-23.7L59.25-23.7Q59.25-25.7 58.07-26.85 56.9-28 54.55-28L54.55-28 49.25-28Z" opacity="1" transform="matrix(1,0,0,1,0,0)" fill="#ffffff" class="undefined-text-0" data-fill-palette-color="primary" id="text-0"></path></svg></g></svg></g></svg></g></svg></g><g></g></svg></g><defs></defs></svg><rect width="395.52" height="213.0890560245587" fill="none" stroke="none" visibility="hidden"></rect></g></svg></g></svg>